M48
METRIC,LZ,000.000
;FILE_FORMAT=3:3
;TYPE=PLATED
;Layer: PTH_Through
;EasyEDA v6.5.46, 2024-09-28 23:34:46
;85c0222427234e8a8314e13dbd9b54d2,10
;Gerber Generator version 0.2
;Holesize 1 = 0.889 mm
T01C0.889
;Holesize 2 = 1.021 mm
T02C1.021
%
G05
G90
T01
X026279Y-053975
X026279Y-051435
X026279Y-048895
X026279Y-046355
X026279Y-043815
X026279Y-041275
X026279Y-038735
X026279Y-036195
X026279Y-033655
X026279Y-031115
X026279Y-028575
X026279Y-026035
X026279Y-023495
X026279Y-020955
X026279Y-018415
X026279Y-015875
X003419Y-015875
X003419Y-018415
X003419Y-020955
X003419Y-023495
X003419Y-026035
X003419Y-028575
X003419Y-031115
X003419Y-033655
X003419Y-036195
X003419Y-038735
X003419Y-041275
X003419Y-043815
X003419Y-046355
X003419Y-048895
X003419Y-051435
X003419Y-053975
T02
X003429Y-004826
X003429Y-002286
X005969Y-004826
X005969Y-002286
X008509Y-004826
X008509Y-002286
X011049Y-004826
X011049Y-002286
X013589Y-004826
X013589Y-002286
X016129Y-004826
X016129Y-002286
X018669Y-004826
X018669Y-002286
X021209Y-004826
X021209Y-002286
X023749Y-004826
X023749Y-002286
X026289Y-004826
X026289Y-002286
M30
