G04 Layer: BottomSolderMaskLayer*
G04 EasyEDA v6.5.46, 2024-09-28 23:34:46*
G04 85c0222427234e8a8314e13dbd9b54d2,10*
G04 Gerber Generator version 0.2*
G04 Scale: 100 percent, Rotated: No, Reflected: No *
G04 Dimensions in millimeters *
G04 leading zeros omitted , absolute positions ,4 integer and 5 decimal *
%FSLAX45Y45*%
%MOMM*%

%AMMACRO1*4,1,8,-0.8296,-0.889,-0.889,-0.8293,-0.889,0.8296,-0.8296,0.889,0.8293,0.889,0.889,0.8296,0.889,-0.8293,0.8293,-0.889,-0.8296,-0.889,0*%
%ADD10C,1.7000*%
%ADD11MACRO1*%
%ADD12C,1.7780*%

%LPD*%
D10*
G01*
X342900Y-482600D03*
G01*
X342900Y-228600D03*
G01*
X596900Y-482600D03*
G01*
X596900Y-228600D03*
G01*
X850900Y-482600D03*
G01*
X850900Y-228600D03*
G01*
X1104900Y-482600D03*
G01*
X1104900Y-228600D03*
G01*
X1358900Y-482600D03*
G01*
X1358900Y-228600D03*
G01*
X1612900Y-482600D03*
G01*
X1612900Y-228600D03*
G01*
X1866900Y-482600D03*
G01*
X1866900Y-228600D03*
G01*
X2120900Y-482600D03*
G01*
X2120900Y-228600D03*
G01*
X2374900Y-482600D03*
G01*
X2374900Y-228600D03*
G01*
X2628900Y-482600D03*
G01*
X2628900Y-228600D03*
D11*
G01*
X2627934Y-5397500D03*
D12*
G01*
X2627939Y-5143500D03*
G01*
X2627939Y-4889500D03*
G01*
X2627939Y-4635500D03*
G01*
X2627939Y-4381500D03*
G01*
X2627939Y-4127500D03*
G01*
X2627939Y-3873500D03*
G01*
X2627939Y-3619500D03*
G01*
X2627939Y-3365500D03*
G01*
X2627939Y-3111500D03*
G01*
X2627939Y-2857500D03*
G01*
X2627939Y-2603500D03*
G01*
X2627939Y-2349500D03*
G01*
X2627939Y-2095500D03*
G01*
X2627939Y-1841500D03*
D11*
G01*
X2627934Y-1587500D03*
D12*
G01*
X341939Y-1587500D03*
G01*
X341939Y-1841500D03*
G01*
X341939Y-2095500D03*
G01*
X341939Y-2349500D03*
G01*
X341939Y-2603500D03*
G01*
X341939Y-2857500D03*
G01*
X341939Y-3111500D03*
G01*
X341939Y-3365500D03*
G01*
X341939Y-3619500D03*
G01*
X341939Y-3873500D03*
G01*
X341939Y-4127500D03*
G01*
X341939Y-4381500D03*
G01*
X341939Y-4635500D03*
G01*
X341939Y-4889500D03*
G01*
X341939Y-5143500D03*
G01*
X341939Y-5397500D03*
M02*
