G04 Layer: BottomLayer*
G04 EasyEDA v6.5.46, 2024-09-28 23:34:46*
G04 85c0222427234e8a8314e13dbd9b54d2,10*
G04 Gerber Generator version 0.2*
G04 Scale: 100 percent, Rotated: No, Reflected: No *
G04 Dimensions in millimeters *
G04 leading zeros omitted , absolute positions ,4 integer and 5 decimal *
%FSLAX45Y45*%
%MOMM*%

%ADD10C,0.2540*%
%ADD11C,1.6000*%
%ADD12R,1.5748X1.5748*%
%ADD13C,1.5748*%

%LPD*%
D10*
X341942Y-4635500D02*
G01*
X2347323Y-2630119D01*
X2347323Y-983894D01*
X2501907Y-829310D01*
X2501907Y-355600D01*
X2628907Y-228600D01*
X341942Y-3873500D02*
G01*
X2247907Y-1967534D01*
X2247907Y-355600D01*
X2374907Y-228600D01*
X2120907Y-228600D02*
G01*
X2003331Y-346176D01*
X2003331Y-1958111D01*
X341942Y-3619500D01*
X341942Y-3365500D02*
G01*
X232544Y-3256102D01*
X232544Y-2556357D01*
X312351Y-2476550D01*
X366859Y-2476550D01*
X1739907Y-1103503D01*
X1739907Y-355600D01*
X1866907Y-228600D01*
X2627942Y-1480794D02*
G01*
X2737289Y-1371447D01*
X2737289Y-174980D01*
X2675465Y-113156D01*
X1559923Y-113156D01*
X1504805Y-168275D01*
X1504805Y-239420D01*
X1388625Y-355600D01*
X469907Y-355600D01*
X342907Y-482600D01*
X2627942Y-1587500D02*
G01*
X2627942Y-1480794D01*
D11*
G01*
X342900Y-482600D03*
G01*
X342900Y-228600D03*
G01*
X596900Y-482600D03*
G01*
X596900Y-228600D03*
G01*
X850900Y-482600D03*
G01*
X850900Y-228600D03*
G01*
X1104900Y-482600D03*
G01*
X1104900Y-228600D03*
G01*
X1358900Y-482600D03*
G01*
X1358900Y-228600D03*
G01*
X1612900Y-482600D03*
G01*
X1612900Y-228600D03*
G01*
X1866900Y-482600D03*
G01*
X1866900Y-228600D03*
G01*
X2120900Y-482600D03*
G01*
X2120900Y-228600D03*
G01*
X2374900Y-482600D03*
G01*
X2374900Y-228600D03*
G01*
X2628900Y-482600D03*
G01*
X2628900Y-228600D03*
D12*
G01*
X2627939Y-5397500D03*
D13*
G01*
X2627939Y-5143500D03*
G01*
X2627939Y-4889500D03*
G01*
X2627939Y-4635500D03*
G01*
X2627939Y-4381500D03*
G01*
X2627939Y-4127500D03*
G01*
X2627939Y-3873500D03*
G01*
X2627939Y-3619500D03*
G01*
X2627939Y-3365500D03*
G01*
X2627939Y-3111500D03*
G01*
X2627939Y-2857500D03*
G01*
X2627939Y-2603500D03*
G01*
X2627939Y-2349500D03*
G01*
X2627939Y-2095500D03*
G01*
X2627939Y-1841500D03*
D12*
G01*
X2627939Y-1587500D03*
D13*
G01*
X341939Y-1587500D03*
G01*
X341939Y-1841500D03*
G01*
X341939Y-2095500D03*
G01*
X341939Y-2349500D03*
G01*
X341939Y-2603500D03*
G01*
X341939Y-2857500D03*
G01*
X341939Y-3111500D03*
G01*
X341939Y-3365500D03*
G01*
X341939Y-3619500D03*
G01*
X341939Y-3873500D03*
G01*
X341939Y-4127500D03*
G01*
X341939Y-4381500D03*
G01*
X341939Y-4635500D03*
G01*
X341939Y-4889500D03*
G01*
X341939Y-5143500D03*
G01*
X341939Y-5397500D03*
M02*
