G04 Layer: TopLayer*
G04 EasyEDA v6.5.46, 2024-09-28 23:34:46*
G04 85c0222427234e8a8314e13dbd9b54d2,10*
G04 Gerber Generator version 0.2*
G04 Scale: 100 percent, Rotated: No, Reflected: No *
G04 Dimensions in millimeters *
G04 leading zeros omitted , absolute positions ,4 integer and 5 decimal *
%FSLAX45Y45*%
%MOMM*%

%ADD10C,0.2032*%
%ADD11C,0.2540*%
%ADD12C,1.6000*%
%ADD13R,1.5748X1.5748*%
%ADD14C,1.5748*%

%LPD*%
D10*
X2693670Y-6729476D02*
G01*
X2693670Y-6923278D01*
X2628900Y-6729476D02*
G01*
X2758186Y-6729476D01*
X2819145Y-6729476D02*
G01*
X2819145Y-6923278D01*
X2819145Y-6729476D02*
G01*
X2939288Y-6729476D01*
X2819145Y-6821678D02*
G01*
X2893059Y-6821678D01*
X2819145Y-6923278D02*
G01*
X2939288Y-6923278D01*
X3000247Y-6729476D02*
G01*
X3129534Y-6923278D01*
X3129534Y-6729476D02*
G01*
X3000247Y-6923278D01*
X3255009Y-6729476D02*
G01*
X3255009Y-6923278D01*
X3190493Y-6729476D02*
G01*
X3319779Y-6729476D01*
X2706370Y-6678676D02*
G01*
X2706370Y-6872478D01*
X2641600Y-6678676D02*
G01*
X2770886Y-6678676D01*
X2831845Y-6678676D02*
G01*
X2831845Y-6872478D01*
X2831845Y-6678676D02*
G01*
X2951988Y-6678676D01*
X2831845Y-6770878D02*
G01*
X2905759Y-6770878D01*
X2831845Y-6872478D02*
G01*
X2951988Y-6872478D01*
X3012947Y-6678676D02*
G01*
X3142234Y-6872478D01*
X3142234Y-6678676D02*
G01*
X3012947Y-6872478D01*
X3267709Y-6678676D02*
G01*
X3267709Y-6872478D01*
X3203193Y-6678676D02*
G01*
X3332479Y-6678676D01*
X1195070Y-6869176D02*
G01*
X1195070Y-7062978D01*
X1130300Y-6869176D02*
G01*
X1259586Y-6869176D01*
X1320545Y-6869176D02*
G01*
X1320545Y-7062978D01*
X1320545Y-6869176D02*
G01*
X1440687Y-6869176D01*
X1320545Y-6961378D02*
G01*
X1394460Y-6961378D01*
X1320545Y-7062978D02*
G01*
X1440687Y-7062978D01*
X1501647Y-6869176D02*
G01*
X1630934Y-7062978D01*
X1630934Y-6869176D02*
G01*
X1501647Y-7062978D01*
X1756410Y-6869176D02*
G01*
X1756410Y-7062978D01*
X1691894Y-6869176D02*
G01*
X1821179Y-6869176D01*
X2617470Y-6767576D02*
G01*
X2617470Y-6961378D01*
X2552700Y-6767576D02*
G01*
X2681986Y-6767576D01*
X2742945Y-6767576D02*
G01*
X2742945Y-6961378D01*
X2742945Y-6767576D02*
G01*
X2863088Y-6767576D01*
X2742945Y-6859778D02*
G01*
X2816859Y-6859778D01*
X2742945Y-6961378D02*
G01*
X2863088Y-6961378D01*
X2924047Y-6767576D02*
G01*
X3053334Y-6961378D01*
X3053334Y-6767576D02*
G01*
X2924047Y-6961378D01*
X3178809Y-6767576D02*
G01*
X3178809Y-6961378D01*
X3114293Y-6767576D02*
G01*
X3243579Y-6767576D01*
D11*
X341942Y-3111500D02*
G01*
X1231907Y-2221534D01*
X1231907Y-355600D01*
X1358907Y-228600D01*
X341942Y-2857500D02*
G01*
X977907Y-2221534D01*
X977907Y-355600D01*
X1104907Y-228600D01*
X341942Y-2603500D02*
G01*
X723907Y-2221534D01*
X723907Y-355600D01*
X850907Y-228600D01*
X341942Y-2349500D02*
G01*
X539325Y-2152116D01*
X539325Y-898728D01*
X487255Y-846658D01*
X487255Y-338251D01*
X596907Y-228600D01*
X341942Y-2095500D02*
G01*
X233230Y-1986787D01*
X233230Y-338277D01*
X342907Y-228600D01*
D12*
G01*
X342900Y-482600D03*
G01*
X342900Y-228600D03*
G01*
X596900Y-482600D03*
G01*
X596900Y-228600D03*
G01*
X850900Y-482600D03*
G01*
X850900Y-228600D03*
G01*
X1104900Y-482600D03*
G01*
X1104900Y-228600D03*
G01*
X1358900Y-482600D03*
G01*
X1358900Y-228600D03*
G01*
X1612900Y-482600D03*
G01*
X1612900Y-228600D03*
G01*
X1866900Y-482600D03*
G01*
X1866900Y-228600D03*
G01*
X2120900Y-482600D03*
G01*
X2120900Y-228600D03*
G01*
X2374900Y-482600D03*
G01*
X2374900Y-228600D03*
G01*
X2628900Y-482600D03*
G01*
X2628900Y-228600D03*
D13*
G01*
X2627939Y-5397500D03*
D14*
G01*
X2627939Y-5143500D03*
G01*
X2627939Y-4889500D03*
G01*
X2627939Y-4635500D03*
G01*
X2627939Y-4381500D03*
G01*
X2627939Y-4127500D03*
G01*
X2627939Y-3873500D03*
G01*
X2627939Y-3619500D03*
G01*
X2627939Y-3365500D03*
G01*
X2627939Y-3111500D03*
G01*
X2627939Y-2857500D03*
G01*
X2627939Y-2603500D03*
G01*
X2627939Y-2349500D03*
G01*
X2627939Y-2095500D03*
G01*
X2627939Y-1841500D03*
D13*
G01*
X2627939Y-1587500D03*
D14*
G01*
X341939Y-1587500D03*
G01*
X341939Y-1841500D03*
G01*
X341939Y-2095500D03*
G01*
X341939Y-2349500D03*
G01*
X341939Y-2603500D03*
G01*
X341939Y-2857500D03*
G01*
X341939Y-3111500D03*
G01*
X341939Y-3365500D03*
G01*
X341939Y-3619500D03*
G01*
X341939Y-3873500D03*
G01*
X341939Y-4127500D03*
G01*
X341939Y-4381500D03*
G01*
X341939Y-4635500D03*
G01*
X341939Y-4889500D03*
G01*
X341939Y-5143500D03*
G01*
X341939Y-5397500D03*
M02*
