G04 Layer: TopSilkscreenLayer*
G04 EasyEDA v6.5.46, 2024-09-28 23:34:46*
G04 85c0222427234e8a8314e13dbd9b54d2,10*
G04 Gerber Generator version 0.2*
G04 Scale: 100 percent, Rotated: No, Reflected: No *
G04 Dimensions in millimeters *
G04 leading zeros omitted , absolute positions ,4 integer and 5 decimal *
%FSLAX45Y45*%
%MOMM*%

%ADD10C,0.1524*%
%ADD11C,0.2032*%
%ADD12C,0.2540*%
%ADD13C,0.2030*%

%LPD*%
D10*
X1485900Y-724915D02*
G01*
X1485900Y-615950D01*
X1451610Y-724915D02*
G01*
X1451610Y-615950D01*
X1451610Y-724915D02*
G01*
X1415287Y-724915D01*
X1399539Y-719836D01*
X1389379Y-709421D01*
X1384045Y-699007D01*
X1378965Y-683260D01*
X1378965Y-657352D01*
X1384045Y-641857D01*
X1389379Y-631444D01*
X1399539Y-621029D01*
X1415287Y-615950D01*
X1451610Y-615950D01*
X1266697Y-699007D02*
G01*
X1271778Y-709421D01*
X1282192Y-719836D01*
X1292605Y-724915D01*
X1313434Y-724915D01*
X1323847Y-719836D01*
X1334262Y-709421D01*
X1339342Y-699007D01*
X1344676Y-683260D01*
X1344676Y-657352D01*
X1339342Y-641857D01*
X1334262Y-631444D01*
X1323847Y-621029D01*
X1313434Y-615950D01*
X1292605Y-615950D01*
X1282192Y-621029D01*
X1271778Y-631444D01*
X1266697Y-641857D01*
X1227073Y-699007D02*
G01*
X1227073Y-704087D01*
X1221994Y-714502D01*
X1216660Y-719836D01*
X1206500Y-724915D01*
X1185671Y-724915D01*
X1175257Y-719836D01*
X1169923Y-714502D01*
X1164844Y-704087D01*
X1164844Y-693673D01*
X1169923Y-683260D01*
X1180337Y-667765D01*
X1232407Y-615950D01*
X1159510Y-615950D01*
X1094231Y-724915D02*
G01*
X1109726Y-719836D01*
X1120139Y-704087D01*
X1125220Y-678179D01*
X1125220Y-662686D01*
X1120139Y-636523D01*
X1109726Y-621029D01*
X1094231Y-615950D01*
X1083818Y-615950D01*
X1068070Y-621029D01*
X1057910Y-636523D01*
X1052576Y-662686D01*
X1052576Y-678179D01*
X1057910Y-704087D01*
X1068070Y-719836D01*
X1083818Y-724915D01*
X1094231Y-724915D01*
D11*
X1408739Y-7042912D02*
G01*
X1408739Y-7088378D01*
X1413311Y-7102094D01*
X1422455Y-7106665D01*
X1435917Y-7106665D01*
X1445061Y-7102094D01*
X1458777Y-7088378D01*
X1458777Y-7042912D02*
G01*
X1458777Y-7106665D01*
X1488749Y-7065518D02*
G01*
X1570537Y-7065518D01*
X1600509Y-7011162D02*
G01*
X1600509Y-7079234D01*
X1605081Y-7092950D01*
X1614225Y-7102094D01*
X1627941Y-7106665D01*
X1636831Y-7106665D01*
X1650547Y-7102094D01*
X1659691Y-7092950D01*
X1664263Y-7079234D01*
X1664263Y-7011162D01*
X1757735Y-7024623D02*
G01*
X1748845Y-7015734D01*
X1735129Y-7011162D01*
X1716841Y-7011162D01*
X1703379Y-7015734D01*
X1694235Y-7024623D01*
X1694235Y-7033768D01*
X1698807Y-7042912D01*
X1703379Y-7047484D01*
X1712269Y-7052055D01*
X1739701Y-7061200D01*
X1748845Y-7065518D01*
X1753163Y-7070089D01*
X1757735Y-7079234D01*
X1757735Y-7092950D01*
X1748845Y-7102094D01*
X1735129Y-7106665D01*
X1716841Y-7106665D01*
X1703379Y-7102094D01*
X1694235Y-7092950D01*
X1787707Y-7011162D02*
G01*
X1787707Y-7106665D01*
X1787707Y-7011162D02*
G01*
X1828855Y-7011162D01*
X1842317Y-7015734D01*
X1846889Y-7020305D01*
X1851461Y-7029195D01*
X1851461Y-7038339D01*
X1846889Y-7047484D01*
X1842317Y-7052055D01*
X1828855Y-7056628D01*
X1787707Y-7056628D02*
G01*
X1828855Y-7056628D01*
X1842317Y-7061200D01*
X1846889Y-7065518D01*
X1851461Y-7074662D01*
X1851461Y-7088378D01*
X1846889Y-7097521D01*
X1842317Y-7102094D01*
X1828855Y-7106665D01*
X1787707Y-7106665D01*
X773684Y-2566162D02*
G01*
X773684Y-2661665D01*
X773684Y-2661665D02*
G01*
X828294Y-2661665D01*
X881126Y-2597912D02*
G01*
X871981Y-2602484D01*
X862837Y-2611628D01*
X858265Y-2625089D01*
X858265Y-2634234D01*
X862837Y-2647950D01*
X871981Y-2657094D01*
X881126Y-2661665D01*
X894587Y-2661665D01*
X903731Y-2657094D01*
X912876Y-2647950D01*
X917447Y-2634234D01*
X917447Y-2625089D01*
X912876Y-2611628D01*
X903731Y-2602484D01*
X894587Y-2597912D01*
X881126Y-2597912D01*
X947420Y-2566162D02*
G01*
X947420Y-2661665D01*
X977392Y-2566162D02*
G01*
X981963Y-2570734D01*
X986536Y-2566162D01*
X981963Y-2561589D01*
X977392Y-2566162D01*
X981963Y-2597912D02*
G01*
X981963Y-2661665D01*
X1016507Y-2597912D02*
G01*
X1016507Y-2661665D01*
X1016507Y-2616200D02*
G01*
X1030223Y-2602484D01*
X1039113Y-2597912D01*
X1052829Y-2597912D01*
X1061973Y-2602484D01*
X1066545Y-2616200D01*
X1066545Y-2661665D01*
X1166368Y-2566162D02*
G01*
X1166368Y-2661665D01*
X1166368Y-2566162D02*
G01*
X1198371Y-2566162D01*
X1211834Y-2570734D01*
X1220978Y-2579623D01*
X1225550Y-2588768D01*
X1230121Y-2602484D01*
X1230121Y-2625089D01*
X1225550Y-2638805D01*
X1220978Y-2647950D01*
X1211834Y-2657094D01*
X1198371Y-2661665D01*
X1166368Y-2661665D01*
X1269237Y-2566162D02*
G01*
X1319276Y-2566162D01*
X1291844Y-2602484D01*
X1305560Y-2602484D01*
X1314704Y-2607055D01*
X1319276Y-2611628D01*
X1323847Y-2625089D01*
X1323847Y-2634234D01*
X1319276Y-2647950D01*
X1310131Y-2657094D01*
X1296415Y-2661665D01*
X1282954Y-2661665D01*
X1269237Y-2657094D01*
X1264665Y-2652521D01*
X1260094Y-2643378D01*
X1358392Y-2588768D02*
G01*
X1358392Y-2584195D01*
X1362710Y-2575305D01*
X1367281Y-2570734D01*
X1376426Y-2566162D01*
X1394713Y-2566162D01*
X1403857Y-2570734D01*
X1408176Y-2575305D01*
X1412747Y-2584195D01*
X1412747Y-2593339D01*
X1408176Y-2602484D01*
X1399286Y-2616200D01*
X1353820Y-2661665D01*
X1417320Y-2661665D01*
X1517395Y-2566162D02*
G01*
X1517395Y-2661665D01*
X1517395Y-2566162D02*
G01*
X1558289Y-2566162D01*
X1572005Y-2570734D01*
X1576578Y-2575305D01*
X1580895Y-2584195D01*
X1580895Y-2597912D01*
X1576578Y-2607055D01*
X1572005Y-2611628D01*
X1558289Y-2616200D01*
X1517395Y-2616200D01*
X1611121Y-2597912D02*
G01*
X1611121Y-2661665D01*
X1611121Y-2625089D02*
G01*
X1615439Y-2611628D01*
X1624584Y-2602484D01*
X1633728Y-2597912D01*
X1647444Y-2597912D01*
X1700021Y-2597912D02*
G01*
X1691131Y-2602484D01*
X1681987Y-2611628D01*
X1677415Y-2625089D01*
X1677415Y-2634234D01*
X1681987Y-2647950D01*
X1691131Y-2657094D01*
X1700021Y-2661665D01*
X1713737Y-2661665D01*
X1722881Y-2657094D01*
X1732026Y-2647950D01*
X1736344Y-2634234D01*
X1736344Y-2625089D01*
X1732026Y-2611628D01*
X1722881Y-2602484D01*
X1713737Y-2597912D01*
X1700021Y-2597912D01*
X1836420Y-2566162D02*
G01*
X1836420Y-2661665D01*
X1836420Y-2566162D02*
G01*
X1895602Y-2566162D01*
X1836420Y-2611628D02*
G01*
X1872742Y-2611628D01*
X1836420Y-2661665D02*
G01*
X1895602Y-2661665D01*
X1989074Y-2579623D02*
G01*
X1980184Y-2570734D01*
X1966468Y-2566162D01*
X1948179Y-2566162D01*
X1934718Y-2570734D01*
X1925573Y-2579623D01*
X1925573Y-2588768D01*
X1930145Y-2597912D01*
X1934718Y-2602484D01*
X1943861Y-2607055D01*
X1971040Y-2616200D01*
X1980184Y-2620518D01*
X1984756Y-2625089D01*
X1989074Y-2634234D01*
X1989074Y-2647950D01*
X1980184Y-2657094D01*
X1966468Y-2661665D01*
X1948179Y-2661665D01*
X1934718Y-2657094D01*
X1925573Y-2647950D01*
X2019300Y-2566162D02*
G01*
X2019300Y-2661665D01*
X2019300Y-2566162D02*
G01*
X2060193Y-2566162D01*
X2073656Y-2570734D01*
X2078227Y-2575305D01*
X2082800Y-2584195D01*
X2082800Y-2597912D01*
X2078227Y-2607055D01*
X2073656Y-2611628D01*
X2060193Y-2616200D01*
X2019300Y-2616200D01*
X2121915Y-2566162D02*
G01*
X2171954Y-2566162D01*
X2144522Y-2602484D01*
X2158238Y-2602484D01*
X2167381Y-2607055D01*
X2171954Y-2611628D01*
X2176525Y-2625089D01*
X2176525Y-2634234D01*
X2171954Y-2647950D01*
X2162809Y-2657094D01*
X2149093Y-2661665D01*
X2135631Y-2661665D01*
X2121915Y-2657094D01*
X2117343Y-2652521D01*
X2112772Y-2643378D01*
X2211070Y-2588768D02*
G01*
X2211070Y-2584195D01*
X2215641Y-2575305D01*
X2220213Y-2570734D01*
X2229104Y-2566162D01*
X2247391Y-2566162D01*
X2256536Y-2570734D01*
X2261108Y-2575305D01*
X2265679Y-2584195D01*
X2265679Y-2593339D01*
X2261108Y-2602484D01*
X2251963Y-2616200D01*
X2206497Y-2661665D01*
X2269997Y-2661665D01*
X1910389Y-4344162D02*
G01*
X1910389Y-4439665D01*
X1878639Y-4344162D02*
G01*
X1942393Y-4344162D01*
X1972365Y-4344162D02*
G01*
X1972365Y-4439665D01*
X1972365Y-4344162D02*
G01*
X2031293Y-4344162D01*
X1972365Y-4389628D02*
G01*
X2008687Y-4389628D01*
X2093269Y-4344162D02*
G01*
X2093269Y-4439665D01*
X2061265Y-4344162D02*
G01*
X2125019Y-4344162D01*
X646739Y-5449062D02*
G01*
X646739Y-5544565D01*
X681283Y-5471668D02*
G01*
X681283Y-5467095D01*
X685855Y-5458205D01*
X690427Y-5453634D01*
X699571Y-5449062D01*
X717605Y-5449062D01*
X726749Y-5453634D01*
X731321Y-5458205D01*
X735893Y-5467095D01*
X735893Y-5476239D01*
X731321Y-5485384D01*
X722177Y-5499100D01*
X676711Y-5544565D01*
X740465Y-5544565D01*
X838509Y-5471668D02*
G01*
X833937Y-5462523D01*
X825047Y-5453634D01*
X815903Y-5449062D01*
X797615Y-5449062D01*
X788471Y-5453634D01*
X779581Y-5462523D01*
X775009Y-5471668D01*
X770437Y-5485384D01*
X770437Y-5507989D01*
X775009Y-5521705D01*
X779581Y-5530850D01*
X788471Y-5539994D01*
X797615Y-5544565D01*
X815903Y-5544565D01*
X825047Y-5539994D01*
X833937Y-5530850D01*
X838509Y-5521705D01*
X1955601Y-6661150D02*
G01*
X2051105Y-6661150D01*
X1955601Y-6692900D02*
G01*
X1955601Y-6629145D01*
X1955601Y-6599173D02*
G01*
X2051105Y-6599173D01*
X1955601Y-6599173D02*
G01*
X1955601Y-6540245D01*
X2001067Y-6599173D02*
G01*
X2001067Y-6562852D01*
X965763Y-6448805D02*
G01*
X1047805Y-6448805D01*
X1006657Y-6489700D02*
G01*
X1006657Y-6407912D01*
X2416611Y-1394968D02*
G01*
X2412293Y-1385823D01*
X2403149Y-1376934D01*
X2394005Y-1372362D01*
X2375717Y-1372362D01*
X2366827Y-1376934D01*
X2357683Y-1385823D01*
X2353111Y-1394968D01*
X2348539Y-1408684D01*
X2348539Y-1431289D01*
X2353111Y-1445005D01*
X2357683Y-1454150D01*
X2366827Y-1463294D01*
X2375717Y-1467865D01*
X2394005Y-1467865D01*
X2403149Y-1463294D01*
X2412293Y-1454150D01*
X2416611Y-1445005D01*
X2416611Y-1431289D01*
X2394005Y-1431289D02*
G01*
X2416611Y-1431289D01*
X2446837Y-1372362D02*
G01*
X2446837Y-1467865D01*
X2446837Y-1372362D02*
G01*
X2510337Y-1467865D01*
X2510337Y-1372362D02*
G01*
X2510337Y-1467865D01*
X2540309Y-1372362D02*
G01*
X2540309Y-1467865D01*
X2540309Y-1372362D02*
G01*
X2572059Y-1372362D01*
X2585775Y-1376934D01*
X2594919Y-1385823D01*
X2599491Y-1394968D01*
X2604063Y-1408684D01*
X2604063Y-1431289D01*
X2599491Y-1445005D01*
X2594919Y-1454150D01*
X2585775Y-1463294D01*
X2572059Y-1467865D01*
X2540309Y-1467865D01*
X2378511Y-1725168D02*
G01*
X2378511Y-1720595D01*
X2383083Y-1711705D01*
X2387655Y-1707134D01*
X2396545Y-1702562D01*
X2414833Y-1702562D01*
X2423977Y-1707134D01*
X2428549Y-1711705D01*
X2433121Y-1720595D01*
X2433121Y-1729739D01*
X2428549Y-1738884D01*
X2419405Y-1752600D01*
X2373939Y-1798065D01*
X2437693Y-1798065D01*
X2476555Y-1702562D02*
G01*
X2526593Y-1702562D01*
X2499415Y-1738884D01*
X2513131Y-1738884D01*
X2522021Y-1743455D01*
X2526593Y-1748028D01*
X2531165Y-1761489D01*
X2531165Y-1770634D01*
X2526593Y-1784350D01*
X2517449Y-1793494D01*
X2503987Y-1798065D01*
X2490271Y-1798065D01*
X2476555Y-1793494D01*
X2472237Y-1788921D01*
X2467665Y-1779778D01*
X2378511Y-1966468D02*
G01*
X2378511Y-1961895D01*
X2383083Y-1953005D01*
X2387655Y-1948434D01*
X2396545Y-1943862D01*
X2414833Y-1943862D01*
X2423977Y-1948434D01*
X2428549Y-1953005D01*
X2433121Y-1961895D01*
X2433121Y-1971039D01*
X2428549Y-1980184D01*
X2419405Y-1993900D01*
X2373939Y-2039365D01*
X2437693Y-2039365D01*
X2472237Y-1966468D02*
G01*
X2472237Y-1961895D01*
X2476555Y-1953005D01*
X2481127Y-1948434D01*
X2490271Y-1943862D01*
X2508559Y-1943862D01*
X2517449Y-1948434D01*
X2522021Y-1953005D01*
X2526593Y-1961895D01*
X2526593Y-1971039D01*
X2522021Y-1980184D01*
X2513131Y-1993900D01*
X2467665Y-2039365D01*
X2531165Y-2039365D01*
X2405689Y-2185162D02*
G01*
X2405689Y-2280665D01*
X2373939Y-2185162D02*
G01*
X2437693Y-2185162D01*
X2467665Y-2185162D02*
G01*
X2531165Y-2280665D01*
X2531165Y-2185162D02*
G01*
X2467665Y-2280665D01*
X2373939Y-2426462D02*
G01*
X2373939Y-2521965D01*
X2373939Y-2426462D02*
G01*
X2414833Y-2426462D01*
X2428549Y-2431034D01*
X2433121Y-2435605D01*
X2437693Y-2444495D01*
X2437693Y-2453639D01*
X2433121Y-2462784D01*
X2428549Y-2467355D01*
X2414833Y-2471928D01*
X2373939Y-2471928D01*
X2405689Y-2471928D02*
G01*
X2437693Y-2521965D01*
X2467665Y-2426462D02*
G01*
X2531165Y-2521965D01*
X2531165Y-2426462D02*
G01*
X2467665Y-2521965D01*
X2391211Y-2715768D02*
G01*
X2391211Y-2711195D01*
X2395783Y-2702305D01*
X2400355Y-2697734D01*
X2409245Y-2693162D01*
X2427533Y-2693162D01*
X2436677Y-2697734D01*
X2441249Y-2702305D01*
X2445821Y-2711195D01*
X2445821Y-2720339D01*
X2441249Y-2729484D01*
X2432105Y-2743200D01*
X2386639Y-2788665D01*
X2450393Y-2788665D01*
X2480365Y-2711195D02*
G01*
X2489255Y-2706623D01*
X2502971Y-2693162D01*
X2502971Y-2788665D01*
X2386639Y-2965195D02*
G01*
X2395783Y-2960623D01*
X2409245Y-2947162D01*
X2409245Y-3042665D01*
X2498399Y-2978912D02*
G01*
X2493827Y-2992628D01*
X2484937Y-3001518D01*
X2471221Y-3006089D01*
X2466649Y-3006089D01*
X2452933Y-3001518D01*
X2443789Y-2992628D01*
X2439471Y-2978912D01*
X2439471Y-2974339D01*
X2443789Y-2960623D01*
X2452933Y-2951734D01*
X2466649Y-2947162D01*
X2471221Y-2947162D01*
X2484937Y-2951734D01*
X2493827Y-2960623D01*
X2498399Y-2978912D01*
X2498399Y-3001518D01*
X2493827Y-3024378D01*
X2484937Y-3038094D01*
X2471221Y-3042665D01*
X2462077Y-3042665D01*
X2448361Y-3038094D01*
X2443789Y-3028950D01*
X2386639Y-3219195D02*
G01*
X2395783Y-3214623D01*
X2409245Y-3201162D01*
X2409245Y-3296665D01*
X2462077Y-3201162D02*
G01*
X2448361Y-3205734D01*
X2443789Y-3214623D01*
X2443789Y-3223768D01*
X2448361Y-3232912D01*
X2457505Y-3237484D01*
X2475793Y-3242055D01*
X2489255Y-3246628D01*
X2498399Y-3255518D01*
X2502971Y-3264662D01*
X2502971Y-3278378D01*
X2498399Y-3287521D01*
X2493827Y-3292094D01*
X2480365Y-3296665D01*
X2462077Y-3296665D01*
X2448361Y-3292094D01*
X2443789Y-3287521D01*
X2439471Y-3278378D01*
X2439471Y-3264662D01*
X2443789Y-3255518D01*
X2452933Y-3246628D01*
X2466649Y-3242055D01*
X2484937Y-3237484D01*
X2493827Y-3232912D01*
X2498399Y-3223768D01*
X2498399Y-3214623D01*
X2493827Y-3205734D01*
X2480365Y-3201162D01*
X2462077Y-3201162D01*
X2479349Y-3455162D02*
G01*
X2433883Y-3455162D01*
X2429311Y-3496055D01*
X2433883Y-3491484D01*
X2447345Y-3486912D01*
X2461061Y-3486912D01*
X2474777Y-3491484D01*
X2483921Y-3500628D01*
X2488493Y-3514089D01*
X2488493Y-3523234D01*
X2483921Y-3536950D01*
X2474777Y-3546094D01*
X2461061Y-3550665D01*
X2447345Y-3550665D01*
X2433883Y-3546094D01*
X2429311Y-3541521D01*
X2424739Y-3532378D01*
X2386639Y-3709162D02*
G01*
X2386639Y-3804665D01*
X2386639Y-3709162D02*
G01*
X2450393Y-3804665D01*
X2450393Y-3709162D02*
G01*
X2450393Y-3804665D01*
X2548437Y-3731768D02*
G01*
X2543865Y-3722623D01*
X2534721Y-3713734D01*
X2525831Y-3709162D01*
X2507543Y-3709162D01*
X2498399Y-3713734D01*
X2489255Y-3722623D01*
X2484937Y-3731768D01*
X2480365Y-3745484D01*
X2480365Y-3768089D01*
X2484937Y-3781805D01*
X2489255Y-3790950D01*
X2498399Y-3800094D01*
X2507543Y-3804665D01*
X2525831Y-3804665D01*
X2534721Y-3800094D01*
X2543865Y-3790950D01*
X2548437Y-3781805D01*
X2373939Y-3963162D02*
G01*
X2373939Y-4058665D01*
X2373939Y-3963162D02*
G01*
X2437693Y-4058665D01*
X2437693Y-3963162D02*
G01*
X2437693Y-4058665D01*
X2535737Y-3985768D02*
G01*
X2531165Y-3976623D01*
X2522021Y-3967734D01*
X2513131Y-3963162D01*
X2494843Y-3963162D01*
X2485699Y-3967734D01*
X2476555Y-3976623D01*
X2472237Y-3985768D01*
X2467665Y-3999484D01*
X2467665Y-4022089D01*
X2472237Y-4035805D01*
X2476555Y-4044950D01*
X2485699Y-4054094D01*
X2494843Y-4058665D01*
X2513131Y-4058665D01*
X2522021Y-4054094D01*
X2531165Y-4044950D01*
X2535737Y-4035805D01*
X2470205Y-4217162D02*
G01*
X2424739Y-4280662D01*
X2492811Y-4280662D01*
X2470205Y-4217162D02*
G01*
X2470205Y-4312665D01*
X2451917Y-4471162D02*
G01*
X2438455Y-4475734D01*
X2429311Y-4489195D01*
X2424739Y-4512055D01*
X2424739Y-4525518D01*
X2429311Y-4548378D01*
X2438455Y-4562094D01*
X2451917Y-4566665D01*
X2461061Y-4566665D01*
X2474777Y-4562094D01*
X2483921Y-4548378D01*
X2488493Y-4525518D01*
X2488493Y-4512055D01*
X2483921Y-4489195D01*
X2474777Y-4475734D01*
X2461061Y-4471162D01*
X2451917Y-4471162D01*
X2416611Y-4747768D02*
G01*
X2416611Y-4743195D01*
X2421183Y-4734305D01*
X2425755Y-4729734D01*
X2434645Y-4725162D01*
X2452933Y-4725162D01*
X2462077Y-4729734D01*
X2466649Y-4734305D01*
X2471221Y-4743195D01*
X2471221Y-4752339D01*
X2466649Y-4761484D01*
X2457505Y-4775200D01*
X2412039Y-4820665D01*
X2475793Y-4820665D01*
X2386639Y-4997195D02*
G01*
X2395783Y-4992623D01*
X2409245Y-4979162D01*
X2409245Y-5074665D01*
X2493827Y-4979162D02*
G01*
X2448361Y-4979162D01*
X2443789Y-5020055D01*
X2448361Y-5015484D01*
X2462077Y-5010912D01*
X2475793Y-5010912D01*
X2489255Y-5015484D01*
X2498399Y-5024628D01*
X2502971Y-5038089D01*
X2502971Y-5047234D01*
X2498399Y-5060950D01*
X2489255Y-5070094D01*
X2475793Y-5074665D01*
X2462077Y-5074665D01*
X2448361Y-5070094D01*
X2443789Y-5065521D01*
X2439471Y-5056378D01*
X2378511Y-5230368D02*
G01*
X2374193Y-5221223D01*
X2365049Y-5212334D01*
X2355905Y-5207762D01*
X2337617Y-5207762D01*
X2328727Y-5212334D01*
X2319583Y-5221223D01*
X2315011Y-5230368D01*
X2310439Y-5244084D01*
X2310439Y-5266689D01*
X2315011Y-5280405D01*
X2319583Y-5289550D01*
X2328727Y-5298694D01*
X2337617Y-5303265D01*
X2355905Y-5303265D01*
X2365049Y-5298694D01*
X2374193Y-5289550D01*
X2378511Y-5280405D01*
X2378511Y-5266689D01*
X2355905Y-5266689D02*
G01*
X2378511Y-5266689D01*
X2408737Y-5207762D02*
G01*
X2408737Y-5303265D01*
X2408737Y-5207762D02*
G01*
X2472237Y-5303265D01*
X2472237Y-5207762D02*
G01*
X2472237Y-5303265D01*
X2502209Y-5207762D02*
G01*
X2502209Y-5303265D01*
X2502209Y-5207762D02*
G01*
X2533959Y-5207762D01*
X2547675Y-5212334D01*
X2556819Y-5221223D01*
X2561391Y-5230368D01*
X2565963Y-5244084D01*
X2565963Y-5266689D01*
X2561391Y-5280405D01*
X2556819Y-5289550D01*
X2547675Y-5298694D01*
X2533959Y-5303265D01*
X2502209Y-5303265D01*
X2310439Y-5401818D02*
G01*
X2392227Y-5401818D01*
X2422199Y-5360923D02*
G01*
X2495097Y-5401818D01*
X2422199Y-5442965D01*
X389183Y-1372362D02*
G01*
X439221Y-1372362D01*
X411789Y-1408684D01*
X425505Y-1408684D01*
X434649Y-1413255D01*
X439221Y-1417828D01*
X443793Y-1431289D01*
X443793Y-1440434D01*
X439221Y-1454150D01*
X430077Y-1463294D01*
X416361Y-1467865D01*
X402645Y-1467865D01*
X389183Y-1463294D01*
X384611Y-1458721D01*
X380039Y-1449578D01*
X473765Y-1372362D02*
G01*
X510087Y-1467865D01*
X546409Y-1372362D02*
G01*
X510087Y-1467865D01*
X418139Y-1702562D02*
G01*
X418139Y-1798065D01*
X418139Y-1702562D02*
G01*
X459033Y-1702562D01*
X472749Y-1707134D01*
X477321Y-1711705D01*
X481893Y-1720595D01*
X481893Y-1729739D01*
X477321Y-1738884D01*
X472749Y-1743455D01*
X459033Y-1748028D01*
X418139Y-1748028D01*
X449889Y-1748028D02*
G01*
X481893Y-1798065D01*
X575365Y-1716023D02*
G01*
X566221Y-1707134D01*
X552759Y-1702562D01*
X534471Y-1702562D01*
X520755Y-1707134D01*
X511865Y-1716023D01*
X511865Y-1725168D01*
X516437Y-1734312D01*
X520755Y-1738884D01*
X529899Y-1743455D01*
X557331Y-1752600D01*
X566221Y-1756918D01*
X570793Y-1761489D01*
X575365Y-1770634D01*
X575365Y-1784350D01*
X566221Y-1793494D01*
X552759Y-1798065D01*
X534471Y-1798065D01*
X520755Y-1793494D01*
X511865Y-1784350D01*
X637341Y-1702562D02*
G01*
X637341Y-1798065D01*
X605337Y-1702562D02*
G01*
X669091Y-1702562D01*
X405439Y-1943862D02*
G01*
X441761Y-2039365D01*
X478083Y-1943862D02*
G01*
X441761Y-2039365D01*
X508055Y-1943862D02*
G01*
X508055Y-2039365D01*
X508055Y-1943862D02*
G01*
X548949Y-1943862D01*
X562665Y-1948434D01*
X567237Y-1953005D01*
X571809Y-1961895D01*
X571809Y-1975612D01*
X567237Y-1984755D01*
X562665Y-1989328D01*
X548949Y-1993900D01*
X508055Y-1993900D01*
X405439Y-2210562D02*
G01*
X441761Y-2306065D01*
X478083Y-2210562D02*
G01*
X441761Y-2306065D01*
X508055Y-2210562D02*
G01*
X508055Y-2306065D01*
X508055Y-2210562D02*
G01*
X571809Y-2306065D01*
X571809Y-2210562D02*
G01*
X571809Y-2306065D01*
X414583Y-2426462D02*
G01*
X464621Y-2426462D01*
X437189Y-2462784D01*
X450905Y-2462784D01*
X460049Y-2467355D01*
X464621Y-2471928D01*
X469193Y-2485389D01*
X469193Y-2494534D01*
X464621Y-2508250D01*
X455477Y-2517394D01*
X441761Y-2521965D01*
X428045Y-2521965D01*
X414583Y-2517394D01*
X410011Y-2512821D01*
X405439Y-2503678D01*
X544631Y-2426462D02*
G01*
X499165Y-2489962D01*
X567237Y-2489962D01*
X544631Y-2426462D02*
G01*
X544631Y-2521965D01*
X414583Y-2693162D02*
G01*
X464621Y-2693162D01*
X437189Y-2729484D01*
X450905Y-2729484D01*
X460049Y-2734055D01*
X464621Y-2738628D01*
X469193Y-2752089D01*
X469193Y-2761234D01*
X464621Y-2774950D01*
X455477Y-2784094D01*
X441761Y-2788665D01*
X428045Y-2788665D01*
X414583Y-2784094D01*
X410011Y-2779521D01*
X405439Y-2770378D01*
X503737Y-2715768D02*
G01*
X503737Y-2711195D01*
X508055Y-2702305D01*
X512627Y-2697734D01*
X521771Y-2693162D01*
X540059Y-2693162D01*
X548949Y-2697734D01*
X553521Y-2702305D01*
X558093Y-2711195D01*
X558093Y-2720339D01*
X553521Y-2729484D01*
X544631Y-2743200D01*
X499165Y-2788665D01*
X562665Y-2788665D01*
X414583Y-2947162D02*
G01*
X464621Y-2947162D01*
X437189Y-2983484D01*
X450905Y-2983484D01*
X460049Y-2988055D01*
X464621Y-2992628D01*
X469193Y-3006089D01*
X469193Y-3015234D01*
X464621Y-3028950D01*
X455477Y-3038094D01*
X441761Y-3042665D01*
X428045Y-3042665D01*
X414583Y-3038094D01*
X410011Y-3033521D01*
X405439Y-3024378D01*
X508055Y-2947162D02*
G01*
X558093Y-2947162D01*
X530915Y-2983484D01*
X544631Y-2983484D01*
X553521Y-2988055D01*
X558093Y-2992628D01*
X562665Y-3006089D01*
X562665Y-3015234D01*
X558093Y-3028950D01*
X548949Y-3038094D01*
X535487Y-3042665D01*
X521771Y-3042665D01*
X508055Y-3038094D01*
X503737Y-3033521D01*
X499165Y-3024378D01*
X410011Y-3223768D02*
G01*
X410011Y-3219195D01*
X414583Y-3210305D01*
X419155Y-3205734D01*
X428045Y-3201162D01*
X446333Y-3201162D01*
X455477Y-3205734D01*
X460049Y-3210305D01*
X464621Y-3219195D01*
X464621Y-3228339D01*
X460049Y-3237484D01*
X450905Y-3251200D01*
X405439Y-3296665D01*
X469193Y-3296665D01*
X553521Y-3201162D02*
G01*
X508055Y-3201162D01*
X503737Y-3242055D01*
X508055Y-3237484D01*
X521771Y-3232912D01*
X535487Y-3232912D01*
X548949Y-3237484D01*
X558093Y-3246628D01*
X562665Y-3260089D01*
X562665Y-3269234D01*
X558093Y-3282950D01*
X548949Y-3292094D01*
X535487Y-3296665D01*
X521771Y-3296665D01*
X508055Y-3292094D01*
X503737Y-3287521D01*
X499165Y-3278378D01*
X410011Y-3477768D02*
G01*
X410011Y-3473195D01*
X414583Y-3464305D01*
X419155Y-3459734D01*
X428045Y-3455162D01*
X446333Y-3455162D01*
X455477Y-3459734D01*
X460049Y-3464305D01*
X464621Y-3473195D01*
X464621Y-3482339D01*
X460049Y-3491484D01*
X450905Y-3505200D01*
X405439Y-3550665D01*
X469193Y-3550665D01*
X553521Y-3468623D02*
G01*
X548949Y-3459734D01*
X535487Y-3455162D01*
X526343Y-3455162D01*
X512627Y-3459734D01*
X503737Y-3473195D01*
X499165Y-3496055D01*
X499165Y-3518662D01*
X503737Y-3536950D01*
X512627Y-3546094D01*
X526343Y-3550665D01*
X530915Y-3550665D01*
X544631Y-3546094D01*
X553521Y-3536950D01*
X558093Y-3523234D01*
X558093Y-3518662D01*
X553521Y-3505200D01*
X544631Y-3496055D01*
X530915Y-3491484D01*
X526343Y-3491484D01*
X512627Y-3496055D01*
X503737Y-3505200D01*
X499165Y-3518662D01*
X410011Y-3731768D02*
G01*
X410011Y-3727195D01*
X414583Y-3718305D01*
X419155Y-3713734D01*
X428045Y-3709162D01*
X446333Y-3709162D01*
X455477Y-3713734D01*
X460049Y-3718305D01*
X464621Y-3727195D01*
X464621Y-3736339D01*
X460049Y-3745484D01*
X450905Y-3759200D01*
X405439Y-3804665D01*
X469193Y-3804665D01*
X562665Y-3709162D02*
G01*
X517199Y-3804665D01*
X499165Y-3709162D02*
G01*
X562665Y-3709162D01*
X405439Y-3981195D02*
G01*
X414583Y-3976623D01*
X428045Y-3963162D01*
X428045Y-4058665D01*
X503737Y-3963162D02*
G01*
X458271Y-4026662D01*
X526343Y-4026662D01*
X503737Y-3963162D02*
G01*
X503737Y-4058665D01*
X405439Y-4235195D02*
G01*
X414583Y-4230623D01*
X428045Y-4217162D01*
X428045Y-4312665D01*
X462589Y-4239768D02*
G01*
X462589Y-4235195D01*
X467161Y-4226305D01*
X471733Y-4221734D01*
X480877Y-4217162D01*
X499165Y-4217162D01*
X508055Y-4221734D01*
X512627Y-4226305D01*
X517199Y-4235195D01*
X517199Y-4244339D01*
X512627Y-4253484D01*
X503737Y-4267200D01*
X458271Y-4312665D01*
X521771Y-4312665D01*
X405439Y-4489195D02*
G01*
X414583Y-4484623D01*
X428045Y-4471162D01*
X428045Y-4566665D01*
X467161Y-4471162D02*
G01*
X517199Y-4471162D01*
X490021Y-4507484D01*
X503737Y-4507484D01*
X512627Y-4512055D01*
X517199Y-4516628D01*
X521771Y-4530089D01*
X521771Y-4539234D01*
X517199Y-4552950D01*
X508055Y-4562094D01*
X494593Y-4566665D01*
X480877Y-4566665D01*
X467161Y-4562094D01*
X462589Y-4557521D01*
X458271Y-4548378D01*
X405439Y-4725162D02*
G01*
X405439Y-4820665D01*
X405439Y-4725162D02*
G01*
X464621Y-4725162D01*
X405439Y-4770628D02*
G01*
X441761Y-4770628D01*
X405439Y-4820665D02*
G01*
X464621Y-4820665D01*
X494593Y-4725162D02*
G01*
X494593Y-4820665D01*
X494593Y-4725162D02*
G01*
X558093Y-4820665D01*
X558093Y-4725162D02*
G01*
X558093Y-4820665D01*
X405439Y-4979162D02*
G01*
X405439Y-5047234D01*
X410011Y-5060950D01*
X419155Y-5070094D01*
X432617Y-5074665D01*
X441761Y-5074665D01*
X455477Y-5070094D01*
X464621Y-5060950D01*
X469193Y-5047234D01*
X469193Y-4979162D01*
X562665Y-4992623D02*
G01*
X553521Y-4983734D01*
X540059Y-4979162D01*
X521771Y-4979162D01*
X508055Y-4983734D01*
X499165Y-4992623D01*
X499165Y-5001768D01*
X503737Y-5010912D01*
X508055Y-5015484D01*
X517199Y-5020055D01*
X544631Y-5029200D01*
X553521Y-5033518D01*
X558093Y-5038089D01*
X562665Y-5047234D01*
X562665Y-5060950D01*
X553521Y-5070094D01*
X540059Y-5074665D01*
X521771Y-5074665D01*
X508055Y-5070094D01*
X499165Y-5060950D01*
X592637Y-4979162D02*
G01*
X592637Y-5074665D01*
X592637Y-4979162D02*
G01*
X633531Y-4979162D01*
X647247Y-4983734D01*
X651819Y-4988305D01*
X656391Y-4997195D01*
X656391Y-5006339D01*
X651819Y-5015484D01*
X647247Y-5020055D01*
X633531Y-5024628D01*
X592637Y-5024628D02*
G01*
X633531Y-5024628D01*
X647247Y-5029200D01*
X651819Y-5033518D01*
X656391Y-5042662D01*
X656391Y-5056378D01*
X651819Y-5065521D01*
X647247Y-5070094D01*
X633531Y-5074665D01*
X592637Y-5074665D01*
X405439Y-5220462D02*
G01*
X405439Y-5315965D01*
X405439Y-5220462D02*
G01*
X446333Y-5220462D01*
X460049Y-5225034D01*
X464621Y-5229605D01*
X469193Y-5238495D01*
X469193Y-5247639D01*
X464621Y-5256784D01*
X460049Y-5261355D01*
X446333Y-5265928D01*
X405439Y-5265928D02*
G01*
X446333Y-5265928D01*
X460049Y-5270500D01*
X464621Y-5274818D01*
X469193Y-5283962D01*
X469193Y-5297678D01*
X464621Y-5306821D01*
X460049Y-5311394D01*
X446333Y-5315965D01*
X405439Y-5315965D01*
X535487Y-5220462D02*
G01*
X499165Y-5315965D01*
X535487Y-5220462D02*
G01*
X571809Y-5315965D01*
X512627Y-5283962D02*
G01*
X558093Y-5283962D01*
X633531Y-5220462D02*
G01*
X633531Y-5315965D01*
X601781Y-5220462D02*
G01*
X665535Y-5220462D01*
D10*
X1484939Y-646684D02*
G01*
X1484939Y-724662D01*
X1490019Y-740155D01*
X1500433Y-750570D01*
X1516181Y-755650D01*
X1526595Y-755650D01*
X1542089Y-750570D01*
X1552503Y-740155D01*
X1557583Y-724662D01*
X1557583Y-646684D01*
X1591873Y-667512D02*
G01*
X1602287Y-662178D01*
X1618035Y-646684D01*
X1618035Y-755650D01*
G36*
X254000Y711200D02*
G01*
X342900Y609600D01*
X444500Y711200D01*
G37*
D12*
X1606318Y767397D02*
G01*
X1606318Y533397D01*
X1358897Y533397D01*
X1358897Y767397D01*
X-164099Y767397D02*
G01*
X-164099Y-114300D01*
X3135894Y767397D02*
G01*
X3135894Y-114300D01*
X-165100Y-114300D01*
X-164099Y767397D02*
G01*
X3135894Y767397D01*
X1853239Y-1498600D02*
G01*
X1853239Y-1943100D01*
X2310439Y-1943100D01*
D13*
X2754939Y-5524500D02*
G01*
X2754939Y-1651000D01*
D12*
X214939Y-789812D02*
G01*
X2754939Y-789812D01*
X2754939Y-7289825D01*
X214939Y-7289825D01*
X214939Y-789812D01*
X2234239Y-6985000D02*
G01*
X2634239Y-6985000D01*
X2634239Y-7265009D01*
X2234239Y-7265009D01*
X2234239Y-6985000D01*
X2640639Y-7086600D02*
G01*
X2666039Y-7086600D01*
X2666039Y-7175500D01*
X2640639Y-7175500D01*
X2640639Y-7086600D01*
X2196139Y-7073900D02*
G01*
X2221539Y-7073900D01*
X2221539Y-7175500D01*
X2196139Y-7175500D01*
X2196139Y-7073900D01*
X1256339Y-6769100D02*
G01*
X1983948Y-6769100D01*
X1983948Y-7283805D01*
X1256339Y-7283805D01*
X1256339Y-6769100D01*
X2170739Y-5651500D02*
G01*
X2756946Y-5651500D01*
X2756946Y-6805091D01*
X2170739Y-6805091D01*
X2170739Y-5651500D01*
X214939Y-6362700D02*
G01*
X838840Y-6362700D01*
X838840Y-7217511D01*
X214939Y-7217511D01*
X214939Y-6362700D01*
X213847Y-5604611D02*
G01*
X597057Y-5604611D01*
X597057Y-6308013D01*
X213847Y-6308013D01*
X213847Y-5604611D01*
X1472239Y-4051300D02*
G01*
X1784151Y-4051300D01*
X1784151Y-5346801D01*
X1472239Y-5346801D01*
X1472239Y-4051300D01*
X684839Y-1498600D02*
G01*
X2297943Y-1498600D01*
X2297943Y-3925011D01*
X684839Y-3925011D01*
X684839Y-1498600D01*
G75*
G01
X2545949Y-7124700D02*
G03X2545949Y-7124700I-108509J0D01*
M02*
