G04 Layer: BottomSilkscreenLayer*
G04 EasyEDA v6.5.46, 2024-09-28 23:34:46*
G04 85c0222427234e8a8314e13dbd9b54d2,10*
G04 Gerber Generator version 0.2*
G04 Scale: 100 percent, Rotated: No, Reflected: No *
G04 Dimensions in millimeters *
G04 leading zeros omitted , absolute positions ,4 integer and 5 decimal *
%FSLAX45Y45*%
%MOMM*%

%ADD10C,0.2032*%

%LPD*%
D10*
X2654300Y-6947590D02*
G01*
X2654300Y-7043046D01*
X2654300Y-6947590D02*
G01*
X2613390Y-6947590D01*
X2599753Y-6952137D01*
X2595209Y-6956681D01*
X2590662Y-6965772D01*
X2590662Y-6979409D01*
X2595209Y-6988500D01*
X2599753Y-6993046D01*
X2613390Y-6997590D01*
X2654300Y-6997590D01*
X2560662Y-6947590D02*
G01*
X2556118Y-6952137D01*
X2551572Y-6947590D01*
X2556118Y-6943046D01*
X2560662Y-6947590D01*
X2556118Y-6979409D02*
G01*
X2556118Y-7043046D01*
X2521572Y-6979409D02*
G01*
X2521572Y-7043046D01*
X2521572Y-6997590D02*
G01*
X2507937Y-6983953D01*
X2498846Y-6979409D01*
X2485209Y-6979409D01*
X2476118Y-6983953D01*
X2471572Y-6997590D01*
X2471572Y-7043046D01*
X2441572Y-6979409D02*
G01*
X2441572Y-7043046D01*
X2441572Y-6997590D02*
G01*
X2427937Y-6983953D01*
X2418847Y-6979409D01*
X2405209Y-6979409D01*
X2396119Y-6983953D01*
X2391572Y-6997590D01*
X2391572Y-7043046D01*
X2391572Y-6997590D02*
G01*
X2377937Y-6983953D01*
X2368847Y-6979409D01*
X2355209Y-6979409D01*
X2346119Y-6983953D01*
X2341572Y-6997590D01*
X2341572Y-7043046D01*
X2257028Y-6979409D02*
G01*
X2257028Y-7043046D01*
X2257028Y-6993046D02*
G01*
X2266119Y-6983953D01*
X2275210Y-6979409D01*
X2288847Y-6979409D01*
X2297938Y-6983953D01*
X2307028Y-6993046D01*
X2311572Y-7006681D01*
X2311572Y-7015772D01*
X2307028Y-7029409D01*
X2297938Y-7038500D01*
X2288847Y-7043046D01*
X2275210Y-7043046D01*
X2266119Y-7038500D01*
X2257028Y-7029409D01*
X2227028Y-6979409D02*
G01*
X2227028Y-7074862D01*
X2227028Y-6993046D02*
G01*
X2217938Y-6983953D01*
X2208847Y-6979409D01*
X2195210Y-6979409D01*
X2186119Y-6983953D01*
X2177028Y-6993046D01*
X2172482Y-7006681D01*
X2172482Y-7015772D01*
X2177028Y-7029409D01*
X2186119Y-7038500D01*
X2195210Y-7043046D01*
X2208847Y-7043046D01*
X2217938Y-7038500D01*
X2227028Y-7029409D01*
X2072482Y-6947590D02*
G01*
X2072482Y-7043046D01*
X2072482Y-6993046D02*
G01*
X2063391Y-6983953D01*
X2054301Y-6979409D01*
X2040663Y-6979409D01*
X2031573Y-6983953D01*
X2022482Y-6993046D01*
X2017938Y-7006681D01*
X2017938Y-7015772D01*
X2022482Y-7029409D01*
X2031573Y-7038500D01*
X2040663Y-7043046D01*
X2054301Y-7043046D01*
X2063391Y-7038500D01*
X2072482Y-7029409D01*
X1983392Y-6979409D02*
G01*
X1956120Y-7043046D01*
X1928848Y-6979409D02*
G01*
X1956120Y-7043046D01*
X1965210Y-7061227D01*
X1974301Y-7070318D01*
X1983392Y-7074862D01*
X1987938Y-7074862D01*
X1760664Y-6983953D02*
G01*
X1765211Y-6974862D01*
X1774301Y-6970318D01*
X1787939Y-6970318D01*
X1797029Y-6974862D01*
X1801573Y-6979409D01*
X1806120Y-6993046D01*
X1806120Y-7006681D01*
X1801573Y-7015772D01*
X1792483Y-7020318D01*
X1778848Y-7020318D01*
X1769755Y-7015772D01*
X1765211Y-7006681D01*
X1787939Y-6970318D02*
G01*
X1797029Y-6979409D01*
X1801573Y-6993046D01*
X1801573Y-7006681D01*
X1797029Y-7015772D01*
X1792483Y-7020318D01*
X1760664Y-6970318D02*
G01*
X1765211Y-7006681D01*
X1765211Y-7015772D01*
X1756120Y-7020318D01*
X1747029Y-7020318D01*
X1737939Y-7011228D01*
X1733392Y-6997590D01*
X1733392Y-6988500D01*
X1737939Y-6974862D01*
X1742483Y-6965772D01*
X1751573Y-6956681D01*
X1760664Y-6952137D01*
X1774301Y-6947590D01*
X1787939Y-6947590D01*
X1801573Y-6952137D01*
X1810664Y-6956681D01*
X1819755Y-6965772D01*
X1824301Y-6974862D01*
X1828848Y-6988500D01*
X1828848Y-7002137D01*
X1824301Y-7015772D01*
X1819755Y-7024862D01*
X1810664Y-7033953D01*
X1801573Y-7038500D01*
X1787939Y-7043046D01*
X1774301Y-7043046D01*
X1760664Y-7038500D01*
X1751573Y-7033953D01*
X1747029Y-7029409D01*
X1756120Y-6970318D02*
G01*
X1760664Y-7006681D01*
X1760664Y-7015772D01*
X1756120Y-7020318D01*
X1703392Y-6947590D02*
G01*
X1703392Y-7043046D01*
X1703392Y-6947590D02*
G01*
X1644302Y-6947590D01*
X1703392Y-6993046D02*
G01*
X1667029Y-6993046D01*
X1591574Y-6979409D02*
G01*
X1600664Y-6983953D01*
X1609755Y-6993046D01*
X1614302Y-7006681D01*
X1614302Y-7015772D01*
X1609755Y-7029409D01*
X1600664Y-7038500D01*
X1591574Y-7043046D01*
X1577939Y-7043046D01*
X1568848Y-7038500D01*
X1559755Y-7029409D01*
X1555211Y-7015772D01*
X1555211Y-7006681D01*
X1559755Y-6993046D01*
X1568848Y-6983953D01*
X1577939Y-6979409D01*
X1591574Y-6979409D01*
X1475211Y-6979409D02*
G01*
X1525211Y-7043046D01*
X1525211Y-6979409D02*
G01*
X1475211Y-6979409D01*
X1525211Y-7043046D02*
G01*
X1475211Y-7043046D01*
X1395211Y-6979409D02*
G01*
X1445211Y-7043046D01*
X1445211Y-6979409D02*
G01*
X1395211Y-6979409D01*
X1445211Y-7043046D02*
G01*
X1395211Y-7043046D01*
X1333393Y-6947590D02*
G01*
X1333393Y-7043046D01*
X1365211Y-6947590D02*
G01*
X1301574Y-6947590D01*
X1271574Y-7006681D02*
G01*
X1217030Y-7006681D01*
X1217030Y-6997590D01*
X1221574Y-6988500D01*
X1226121Y-6983953D01*
X1235212Y-6979409D01*
X1248849Y-6979409D01*
X1257940Y-6983953D01*
X1267030Y-6993046D01*
X1271574Y-7006681D01*
X1271574Y-7015772D01*
X1267030Y-7029409D01*
X1257940Y-7038500D01*
X1248849Y-7043046D01*
X1235212Y-7043046D01*
X1226121Y-7038500D01*
X1217030Y-7029409D01*
X1187030Y-6979409D02*
G01*
X1137030Y-7043046D01*
X1137030Y-6979409D02*
G01*
X1187030Y-7043046D01*
X1107031Y-6979409D02*
G01*
X1057031Y-7043046D01*
X1057031Y-6979409D02*
G01*
X1107031Y-7043046D01*
X2615239Y-7163490D02*
G01*
X2615239Y-7258946D01*
X2615239Y-7213490D02*
G01*
X2601602Y-7199853D01*
X2592511Y-7195309D01*
X2578877Y-7195309D01*
X2569786Y-7199853D01*
X2565239Y-7213490D01*
X2565239Y-7258946D01*
X2521602Y-7163490D02*
G01*
X2521602Y-7240762D01*
X2517058Y-7254400D01*
X2507968Y-7258946D01*
X2498877Y-7258946D01*
X2535240Y-7195309D02*
G01*
X2503421Y-7195309D01*
X2455240Y-7163490D02*
G01*
X2455240Y-7240762D01*
X2450693Y-7254400D01*
X2441602Y-7258946D01*
X2432512Y-7258946D01*
X2468877Y-7195309D02*
G01*
X2437058Y-7195309D01*
X2402512Y-7195309D02*
G01*
X2402512Y-7290762D01*
X2402512Y-7208946D02*
G01*
X2393421Y-7199853D01*
X2384331Y-7195309D01*
X2370693Y-7195309D01*
X2361603Y-7199853D01*
X2352512Y-7208946D01*
X2347968Y-7222581D01*
X2347968Y-7231672D01*
X2352512Y-7245309D01*
X2361603Y-7254400D01*
X2370693Y-7258946D01*
X2384331Y-7258946D01*
X2393421Y-7254400D01*
X2402512Y-7245309D01*
X2267968Y-7208946D02*
G01*
X2272512Y-7199853D01*
X2286149Y-7195309D01*
X2299787Y-7195309D01*
X2313421Y-7199853D01*
X2317968Y-7208946D01*
X2313421Y-7218037D01*
X2304331Y-7222581D01*
X2281603Y-7227128D01*
X2272512Y-7231672D01*
X2267968Y-7240762D01*
X2267968Y-7245309D01*
X2272512Y-7254400D01*
X2286149Y-7258946D01*
X2299787Y-7258946D01*
X2313421Y-7254400D01*
X2317968Y-7245309D01*
X2233422Y-7204400D02*
G01*
X2237968Y-7208946D01*
X2233422Y-7213490D01*
X2228877Y-7208946D01*
X2233422Y-7204400D01*
X2233422Y-7236218D02*
G01*
X2237968Y-7240762D01*
X2233422Y-7245309D01*
X2228877Y-7240762D01*
X2233422Y-7236218D01*
X2117059Y-7145309D02*
G01*
X2198877Y-7290762D01*
X2005241Y-7145309D02*
G01*
X2087059Y-7290762D01*
X1938878Y-7163490D02*
G01*
X1947969Y-7163490D01*
X1957059Y-7168037D01*
X1961603Y-7181672D01*
X1961603Y-7258946D01*
X1975241Y-7195309D02*
G01*
X1943422Y-7195309D01*
X1908878Y-7195309D02*
G01*
X1908878Y-7240762D01*
X1904331Y-7254400D01*
X1895241Y-7258946D01*
X1881604Y-7258946D01*
X1872513Y-7254400D01*
X1858878Y-7240762D01*
X1858878Y-7195309D02*
G01*
X1858878Y-7258946D01*
X1810694Y-7163490D02*
G01*
X1806150Y-7168037D01*
X1801604Y-7163490D01*
X1806150Y-7158946D01*
X1810694Y-7163490D01*
X1806150Y-7195309D02*
G01*
X1806150Y-7272581D01*
X1810694Y-7286218D01*
X1819788Y-7290762D01*
X1828878Y-7290762D01*
X1771604Y-7163490D02*
G01*
X1767060Y-7168037D01*
X1762513Y-7163490D01*
X1767060Y-7158946D01*
X1771604Y-7163490D01*
X1767060Y-7195309D02*
G01*
X1767060Y-7258946D01*
X1732513Y-7195309D02*
G01*
X1732513Y-7258946D01*
X1732513Y-7213490D02*
G01*
X1718878Y-7199853D01*
X1709788Y-7195309D01*
X1696151Y-7195309D01*
X1687060Y-7199853D01*
X1682513Y-7213490D01*
X1682513Y-7258946D01*
X1652513Y-7222581D02*
G01*
X1597969Y-7222581D01*
X1597969Y-7213490D01*
X1602513Y-7204400D01*
X1607060Y-7199853D01*
X1616151Y-7195309D01*
X1629788Y-7195309D01*
X1638879Y-7199853D01*
X1647969Y-7208946D01*
X1652513Y-7222581D01*
X1652513Y-7231672D01*
X1647969Y-7245309D01*
X1638879Y-7254400D01*
X1629788Y-7258946D01*
X1616151Y-7258946D01*
X1607060Y-7254400D01*
X1597969Y-7245309D01*
X1554332Y-7163490D02*
G01*
X1554332Y-7240762D01*
X1549788Y-7254400D01*
X1540695Y-7258946D01*
X1531604Y-7258946D01*
X1567969Y-7195309D02*
G01*
X1536151Y-7195309D01*
X1497060Y-7236218D02*
G01*
X1501604Y-7240762D01*
X1497060Y-7245309D01*
X1492514Y-7240762D01*
X1497060Y-7236218D01*
X1439788Y-7195309D02*
G01*
X1448879Y-7199853D01*
X1457970Y-7208946D01*
X1462514Y-7222581D01*
X1462514Y-7231672D01*
X1457970Y-7245309D01*
X1448879Y-7254400D01*
X1439788Y-7258946D01*
X1426151Y-7258946D01*
X1417060Y-7254400D01*
X1407970Y-7245309D01*
X1403423Y-7231672D01*
X1403423Y-7222581D01*
X1407970Y-7208946D01*
X1417060Y-7199853D01*
X1426151Y-7195309D01*
X1439788Y-7195309D01*
X1373423Y-7195309D02*
G01*
X1373423Y-7258946D01*
X1373423Y-7213490D02*
G01*
X1359788Y-7199853D01*
X1350695Y-7195309D01*
X1337061Y-7195309D01*
X1327970Y-7199853D01*
X1323423Y-7213490D01*
X1323423Y-7258946D01*
X1293423Y-7163490D02*
G01*
X1293423Y-7258946D01*
X1263423Y-7163490D02*
G01*
X1258879Y-7168037D01*
X1254333Y-7163490D01*
X1258879Y-7158946D01*
X1263423Y-7163490D01*
X1258879Y-7195309D02*
G01*
X1258879Y-7258946D01*
X1224333Y-7195309D02*
G01*
X1224333Y-7258946D01*
X1224333Y-7213490D02*
G01*
X1210696Y-7199853D01*
X1201605Y-7195309D01*
X1187970Y-7195309D01*
X1178880Y-7199853D01*
X1174333Y-7213490D01*
X1174333Y-7258946D01*
X1144333Y-7222581D02*
G01*
X1089789Y-7222581D01*
X1089789Y-7213490D01*
X1094333Y-7204400D01*
X1098880Y-7199853D01*
X1107970Y-7195309D01*
X1121605Y-7195309D01*
X1130696Y-7199853D01*
X1139789Y-7208946D01*
X1144333Y-7222581D01*
X1144333Y-7231672D01*
X1139789Y-7245309D01*
X1130696Y-7254400D01*
X1121605Y-7258946D01*
X1107970Y-7258946D01*
X1098880Y-7254400D01*
X1089789Y-7245309D01*
X989789Y-7195309D02*
G01*
X962515Y-7258946D01*
X935243Y-7195309D02*
G01*
X962515Y-7258946D01*
X877971Y-7163490D02*
G01*
X891606Y-7168037D01*
X900696Y-7181672D01*
X905243Y-7204400D01*
X905243Y-7218037D01*
X900696Y-7240762D01*
X891606Y-7254400D01*
X877971Y-7258946D01*
X868880Y-7258946D01*
X855243Y-7254400D01*
X846152Y-7240762D01*
X841606Y-7218037D01*
X841606Y-7204400D01*
X846152Y-7181672D01*
X855243Y-7168037D01*
X868880Y-7163490D01*
X877971Y-7163490D01*
X807062Y-7236218D02*
G01*
X811606Y-7240762D01*
X807062Y-7245309D01*
X802515Y-7240762D01*
X807062Y-7236218D01*
X745243Y-7163490D02*
G01*
X758880Y-7168037D01*
X767971Y-7181672D01*
X772515Y-7204400D01*
X772515Y-7218037D01*
X767971Y-7240762D01*
X758880Y-7254400D01*
X745243Y-7258946D01*
X736152Y-7258946D01*
X722515Y-7254400D01*
X713425Y-7240762D01*
X708880Y-7218037D01*
X708880Y-7204400D01*
X713425Y-7181672D01*
X722515Y-7168037D01*
X736152Y-7163490D01*
X745243Y-7163490D01*
X674334Y-7236218D02*
G01*
X678881Y-7240762D01*
X674334Y-7245309D01*
X669790Y-7240762D01*
X674334Y-7236218D01*
X639790Y-7181672D02*
G01*
X630697Y-7177128D01*
X617062Y-7163490D01*
X617062Y-7258946D01*
X1307139Y-5537890D02*
G01*
X1307139Y-5633346D01*
X1307139Y-5537890D02*
G01*
X1248049Y-5537890D01*
X1307139Y-5583346D02*
G01*
X1270777Y-5583346D01*
X1218049Y-5537890D02*
G01*
X1218049Y-5633346D01*
X1218049Y-5537890D02*
G01*
X1154412Y-5633346D01*
X1154412Y-5537890D02*
G01*
X1154412Y-5633346D01*
M02*
